<svg width="24" height="24" viewBox="0 0 24 24" fill="none" xmlns="http://www.w3.org/2000/svg">
<path d="M17.625 23.25H8.25V4.5H20.4375V15.6875L17.625 17.5938V23.25Z" fill="white"/>
<path d="M17.625 0.75H6.375C3.27337 0.75 0.75 3.27337 0.75 6.375V17.625C0.75 20.7266 3.27337 23.25 6.375 23.25H12V13.875H10.6875C10.1697 13.875 9.75 13.4553 9.75 12.9375C9.75 12.4197 10.1697 12 10.6875 12H12V10.336C12 8.15188 13.7769 6.375 15.961 6.375H18C18.5177 6.375 18.9375 6.79475 18.9375 7.3125C18.9375 7.83025 18.5177 8.25 18 8.25H15.961C14.8108 8.25 13.875 9.18575 13.875 10.336V12H17.625C18.1428 12 18.5625 12.4197 18.5625 12.9375C18.5625 13.4553 18.1428 13.875 17.625 13.875H13.875V23.25H17.625C20.7266 23.25 23.25 20.7266 23.25 17.625V6.375C23.25 3.27337 20.7266 0.75 17.625 0.75Z" fill="#1C3D12"/>
</svg>
